{
	"asset":{
		"generator":"Khronos glTF Blender I/O v3.5.30",
		"version":"2.0"
	},
	"scene":0,
	"scenes":[
		{
			"name":"Scene",
			"nodes":[
				0
			]
		}
	],
	"nodes":[
		{
			"mesh":0,
			"name":"Plane"
		}
	],
	"materials":[
		{
			"doubleSided":true,
			"name":"Material.002",
			"pbrMetallicRoughness":{
				"baseColorTexture":{
					"index":0
				},
				"metallicFactor":0,
				"metallicRoughnessTexture":{
					"index":1
				}
			}
		}
	],
	"meshes":[
		{
			"name":"Plane.001",
			"primitives":[
				{
					"attributes":{
						"POSITION":0,
						"TEXCOORD_0":1,
						"NORMAL":2,
						"TANGENT":3
					},
					"indices":4,
					"material":0
				}
			]
		}
	],
	"textures":[
		{
			"sampler":0,
			"source":0
		},
		{
			"sampler":0,
			"source":1
		}
	],
	"images":[
		{
			"bufferView":5,
			"mimeType":"image/png",
			"name":"Untitled"
		},
		{
			"bufferView":6,
			"mimeType":"image/png",
			"name":"Untitled"
		}
	],
	"accessors":[
		{
			"bufferView":0,
			"componentType":5126,
			"count":4,
			"max":[
				4.528890609741211,
				0,
				4.528890609741211
			],
			"min":[
				-4.528890609741211,
				0,
				-4.528890609741211
			],
			"type":"VEC3"
		},
		{
			"bufferView":1,
			"componentType":5126,
			"count":4,
			"type":"VEC2"
		},
		{
			"bufferView":2,
			"componentType":5126,
			"count":4,
			"type":"VEC3"
		},
		{
			"bufferView":3,
			"componentType":5126,
			"count":4,
			"type":"VEC4"
		},
		{
			"bufferView":4,
			"componentType":5123,
			"count":6,
			"type":"SCALAR"
		}
	],
	"bufferViews":[
		{
			"buffer":0,
			"byteLength":48,
			"byteOffset":0,
			"target":34962
		},
		{
			"buffer":0,
			"byteLength":32,
			"byteOffset":48,
			"target":34962
		},
		{
			"buffer":0,
			"byteLength":48,
			"byteOffset":80,
			"target":34962
		},
		{
			"buffer":0,
			"byteLength":64,
			"byteOffset":128,
			"target":34962
		},
		{
			"buffer":0,
			"byteLength":12,
			"byteOffset":192,
			"target":34963
		},
		{
			"buffer":0,
			"byteLength":1097067,
			"byteOffset":204
		},
		{
			"buffer":0,
			"byteLength":174504,
			"byteOffset":1097272
		}
	],
	"samplers":[
		{
			"magFilter":9729,
			"minFilter":9987
		}
	],
	"buffers":[
		{
			"byteLength":1271776,
			"uri":"data:application/octet-stream;base64,"
		}
	]
}
