{
	"asset":{
		"generator":"Khronos glTF Blender I/O v3.5.30",
		"version":"2.0"
	},
	"extensionsUsed":[
		"KHR_materials_specular",
		"KHR_materials_ior"
	],
	"scene":0,
	"scenes":[
		{
			"name":"Scene",
			"nodes":[
				0,
				1
			]
		}
	],
	"nodes":[
		{
			"mesh":0,
			"name":"Plane"
		},
		{
			"mesh":1,
			"name":"Television_01",
			"rotation":[
				0,
				0.4188700318336487,
				0,
				0.9080461859703064
			],
			"scale":[
				4.710578918457031,
				4.710578918457031,
				4.710578918457031
			],
			"translation":[
				-1.7664835453033447,
				1.0981132984161377,
				0.2941901385784149
			]
		}
	],
	"materials":[
		{
			"doubleSided":true,
			"name":"Material.002",
			"pbrMetallicRoughness":{
				"baseColorTexture":{
					"index":0
				},
				"metallicFactor":0,
				"metallicRoughnessTexture":{
					"index":1
				}
			}
		},
		{
			"doubleSided":true,
			"extensions":{
				"KHR_materials_specular":{
					"specularColorTexture":{
						"index":2
					},
					"specularColorFactor":[
						2.757392476319815,
						2.5301094608881507,
						2.532517678737575
					]
				},
				"KHR_materials_ior":{
					"ior":1.4500000476837158
				}
			},
			"name":"Television_01",
			"normalTexture":{
				"index":3
			},
			"pbrMetallicRoughness":{
				"baseColorTexture":{
					"index":4
				},
				"metallicRoughnessTexture":{
					"index":5
				}
			}
		}
	],
	"meshes":[
		{
			"name":"Plane.001",
			"primitives":[
				{
					"attributes":{
						"POSITION":0,
						"TEXCOORD_0":1,
						"NORMAL":2,
						"TANGENT":3
					},
					"indices":4,
					"material":0
				}
			]
		},
		{
			"name":"Cube.021",
			"primitives":[
				{
					"attributes":{
						"POSITION":5,
						"TEXCOORD_0":6,
						"NORMAL":7
					},
					"indices":8,
					"material":1
				}
			]
		}
	],
	"textures":[
		{
			"sampler":0,
			"source":0
		},
		{
			"sampler":0,
			"source":1
		},
		{
			"sampler":0,
			"source":2
		},
		{
			"sampler":0,
			"source":3
		},
		{
			"sampler":0,
			"source":4
		},
		{
			"sampler":0,
			"source":5
		}
	],
	"images":[
		{
			"bufferView":5,
			"mimeType":"image/png",
			"name":"Untitled"
		},
		{
			"bufferView":6,
			"mimeType":"image/png",
			"name":"Untitled"
		},
		{
			"bufferView":11,
			"mimeType":"image/png",
			"name":"Image"
		},
		{
			"bufferView":12,
			"mimeType":"image/png",
			"name":"Television_01_nor_gl"
		},
		{
			"bufferView":13,
			"mimeType":"image/jpeg",
			"name":"Television_01_diff_2k"
		},
		{
			"bufferView":14,
			"mimeType":"image/png",
			"name":"Television_01_metallic-Television_01_roughness"
		}
	],
	"accessors":[
		{
			"bufferView":0,
			"componentType":5126,
			"count":4,
			"max":[
				4.528890609741211,
				0,
				4.528890609741211
			],
			"min":[
				-4.528890609741211,
				0,
				-4.528890609741211
			],
			"type":"VEC3"
		},
		{
			"bufferView":1,
			"componentType":5126,
			"count":4,
			"type":"VEC2"
		},
		{
			"bufferView":2,
			"componentType":5126,
			"count":4,
			"type":"VEC3"
		},
		{
			"bufferView":3,
			"componentType":5126,
			"count":4,
			"type":"VEC4"
		},
		{
			"bufferView":4,
			"componentType":5123,
			"count":6,
			"type":"SCALAR"
		},
		{
			"bufferView":7,
			"componentType":5126,
			"count":1976,
			"max":[
				0.25056374073028564,
				0.2103874832391739,
				0.14467120170593262
			],
			"min":[
				-0.3494361639022827,
				-0.24646145105361938,
				-0.3261394500732422
			],
			"type":"VEC3"
		},
		{
			"bufferView":8,
			"componentType":5126,
			"count":1976,
			"type":"VEC2"
		},
		{
			"bufferView":9,
			"componentType":5126,
			"count":1976,
			"type":"VEC3"
		},
		{
			"bufferView":10,
			"componentType":5123,
			"count":5754,
			"type":"SCALAR"
		}
	],
	"bufferViews":[
		{
			"buffer":0,
			"byteLength":48,
			"byteOffset":0,
			"target":34962
		},
		{
			"buffer":0,
			"byteLength":32,
			"byteOffset":48,
			"target":34962
		},
		{
			"buffer":0,
			"byteLength":48,
			"byteOffset":80,
			"target":34962
		},
		{
			"buffer":0,
			"byteLength":64,
			"byteOffset":128,
			"target":34962
		},
		{
			"buffer":0,
			"byteLength":12,
			"byteOffset":192,
			"target":34963
		},
		{
			"buffer":0,
			"byteLength":1097067,
			"byteOffset":204
		},
		{
			"buffer":0,
			"byteLength":171675,
			"byteOffset":1097272
		},
		{
			"buffer":0,
			"byteLength":23712,
			"byteOffset":1268948,
			"target":34962
		},
		{
			"buffer":0,
			"byteLength":15808,
			"byteOffset":1292660,
			"target":34962
		},
		{
			"buffer":0,
			"byteLength":23712,
			"byteOffset":1308468,
			"target":34962
		},
		{
			"buffer":0,
			"byteLength":11508,
			"byteOffset":1332180,
			"target":34963
		},
		{
			"buffer":0,
			"byteLength":171584,
			"byteOffset":1343688
		},
		{
			"buffer":0,
			"byteLength":1092100,
			"byteOffset":1515272
		},
		{
			"buffer":0,
			"byteLength":25435,
			"byteOffset":2607372
		},
		{
			"buffer":0,
			"byteLength":295817,
			"byteOffset":2632808
		}
	],
	"samplers":[
		{
			"magFilter":9729,
			"minFilter":9987
		}
	],
	"buffers":[
		{
			"byteLength":2928628,
			"uri":"data:application/octet-stream;base64,"
		}
	]
}
