{
	"asset":{
		"generator":"Khronos glTF Blender I/O v3.5.30",
		"version":"2.0"
	},
	"extensionsUsed":[
		"KHR_materials_specular",
		"KHR_materials_ior"
	],
	"scene":0,
	"scenes":[
		{
			"name":"Scene",
			"nodes":[
				0,
				1,
				2,
				3,
				4,
				5,
				6,
				7
			]
		}
	],
	"nodes":[
		{
			"mesh":0,
			"name":"Plane",
			"scale":[
				34.619632720947266,
				34.619632720947266,
				34.619632720947266
			]
		},
		{
			"mesh":1,
			"name":"object1",
			"rotation":[
				0.7071068286895752,
				0,
				0,
				0.7071068286895752
			],
			"scale":[
				3.1482737064361572,
				3.1482737064361572,
				3.1482737064361572
			]
		},
		{
			"mesh":2,
			"name":"object2",
			"rotation":[
				0.7071068286895752,
				0,
				0,
				0.7071068286895752
			],
			"scale":[
				3.1482737064361572,
				3.1482737064361572,
				3.1482737064361572
			]
		},
		{
			"mesh":3,
			"name":"object3",
			"rotation":[
				0.7071068286895752,
				0,
				0,
				0.7071068286895752
			],
			"scale":[
				3.1482737064361572,
				3.1482737064361572,
				3.1482737064361572
			]
		},
		{
			"mesh":4,
			"name":"object4",
			"rotation":[
				0.7071068286895752,
				0,
				0,
				0.7071068286895752
			],
			"scale":[
				3.1482737064361572,
				3.1482737064361572,
				3.1482737064361572
			]
		},
		{
			"mesh":5,
			"name":"object5",
			"rotation":[
				0.7071068286895752,
				0,
				0,
				0.7071068286895752
			],
			"scale":[
				3.1482737064361572,
				3.1482737064361572,
				3.1482737064361572
			]
		},
		{
			"mesh":6,
			"name":"object6",
			"rotation":[
				0.7071068286895752,
				0,
				0,
				0.7071068286895752
			],
			"scale":[
				3.1482737064361572,
				3.1482737064361572,
				3.1482737064361572
			]
		},
		{
			"mesh":7,
			"name":"object7",
			"rotation":[
				0.7071068286895752,
				0,
				0,
				0.7071068286895752
			],
			"scale":[
				3.1482737064361572,
				3.1482737064361572,
				3.1482737064361572
			]
		}
	],
	"materials":[
		{
			"doubleSided":true,
			"extensions":{
				"KHR_materials_specular":{
					"specularColorFactor":[
						2.371357614441398,
						2.371357614441398,
						2.371357614441398
					]
				},
				"KHR_materials_ior":{
					"ior":1.4500000476837158
				}
			},
			"name":"Candlelight",
			"pbrMetallicRoughness":{
				"baseColorFactor":[
					1,
					0.8823999762535095,
					0.5254999995231628,
					1
				],
				"metallicFactor":0
			}
		},
		{
			"doubleSided":true,
			"extensions":{
				"KHR_materials_specular":{
					"specularColorFactor":[
						2.371357614441398,
						2.371357614441398,
						2.371357614441398
					]
				},
				"KHR_materials_ior":{
					"ior":1.4500000476837158
				}
			},
			"name":"Wood_Darker",
			"pbrMetallicRoughness":{
				"baseColorFactor":[
					0.38429999351501465,
					0.31369999051094055,
					0.25099998712539673,
					1
				],
				"metallicFactor":0
			}
		},
		{
			"doubleSided":true,
			"extensions":{
				"KHR_materials_specular":{
					"specularColorFactor":[
						2.371357614441398,
						2.371357614441398,
						2.371357614441398
					]
				},
				"KHR_materials_ior":{
					"ior":1.4500000476837158
				}
			},
			"name":"Wood_Dark",
			"pbrMetallicRoughness":{
				"baseColorFactor":[
					0.5175999999046326,
					0.4196000099182129,
					0.33329999446868896,
					1
				],
				"metallicFactor":0
			}
		},
		{
			"doubleSided":true,
			"extensions":{
				"KHR_materials_specular":{
					"specularColorFactor":[
						2.371357614441398,
						2.371357614441398,
						2.371357614441398
					]
				},
				"KHR_materials_ior":{
					"ior":1.4500000476837158
				}
			},
			"name":"Iron_Grey",
			"pbrMetallicRoughness":{
				"baseColorFactor":[
					0.42750000953674316,
					0.4196000099182129,
					0.3882000148296356,
					1
				],
				"metallicFactor":0
			}
		},
		{
			"doubleSided":true,
			"extensions":{
				"KHR_materials_specular":{
					"specularColorFactor":[
						2.371357614441398,
						2.371357614441398,
						2.371357614441398
					]
				},
				"KHR_materials_ior":{
					"ior":1.4500000476837158
				}
			},
			"name":"Iron_Grey_-_Dark",
			"pbrMetallicRoughness":{
				"baseColorFactor":[
					0.3019999861717224,
					0.28630000352859497,
					0.2745000123977661,
					1
				],
				"metallicFactor":0
			}
		}
	],
	"meshes":[
		{
			"name":"Plane.007",
			"primitives":[
				{
					"attributes":{
						"POSITION":0,
						"TEXCOORD_0":1,
						"NORMAL":2,
						"TANGENT":3
					},
					"indices":4
				}
			]
		},
		{
			"name":"object1",
			"primitives":[
				{
					"attributes":{
						"POSITION":5,
						"TEXCOORD_0":6,
						"NORMAL":7,
						"TANGENT":8
					},
					"indices":9,
					"material":0
				}
			]
		},
		{
			"name":"object2",
			"primitives":[
				{
					"attributes":{
						"POSITION":10,
						"TEXCOORD_0":11,
						"NORMAL":12,
						"TANGENT":13
					},
					"indices":14,
					"material":1
				},
				{
					"attributes":{
						"POSITION":15,
						"TEXCOORD_0":16,
						"NORMAL":17,
						"TANGENT":18
					},
					"indices":19,
					"material":2
				}
			]
		},
		{
			"name":"object3",
			"primitives":[
				{
					"attributes":{
						"POSITION":20,
						"TEXCOORD_0":21,
						"NORMAL":22,
						"TANGENT":23
					},
					"indices":24,
					"material":3
				}
			]
		},
		{
			"name":"object4",
			"primitives":[
				{
					"attributes":{
						"POSITION":25,
						"TEXCOORD_0":26,
						"NORMAL":27,
						"TANGENT":28
					},
					"indices":29,
					"material":3
				},
				{
					"attributes":{
						"POSITION":30,
						"TEXCOORD_0":31,
						"NORMAL":32,
						"TANGENT":33
					},
					"indices":34,
					"material":4
				}
			]
		},
		{
			"name":"object5",
			"primitives":[
				{
					"attributes":{
						"POSITION":35,
						"TEXCOORD_0":36,
						"NORMAL":37,
						"TANGENT":38
					},
					"indices":39,
					"material":3
				}
			]
		},
		{
			"name":"object6",
			"primitives":[
				{
					"attributes":{
						"POSITION":40,
						"TEXCOORD_0":41,
						"NORMAL":42,
						"TANGENT":43
					},
					"indices":44,
					"material":3
				}
			]
		},
		{
			"name":"object7",
			"primitives":[
				{
					"attributes":{
						"POSITION":45,
						"TEXCOORD_0":46,
						"NORMAL":47,
						"TANGENT":48
					},
					"indices":49,
					"material":3
				}
			]
		}
	],
	"accessors":[
		{
			"bufferView":0,
			"componentType":5126,
			"count":4,
			"max":[
				1,
				0,
				1
			],
			"min":[
				-1,
				0,
				-1
			],
			"type":"VEC3"
		},
		{
			"bufferView":1,
			"componentType":5126,
			"count":4,
			"type":"VEC2"
		},
		{
			"bufferView":2,
			"componentType":5126,
			"count":4,
			"type":"VEC3"
		},
		{
			"bufferView":3,
			"componentType":5126,
			"count":4,
			"type":"VEC4"
		},
		{
			"bufferView":4,
			"componentType":5123,
			"count":6,
			"type":"SCALAR"
		},
		{
			"bufferView":5,
			"componentType":5126,
			"count":24,
			"max":[
				0.08067840337753296,
				0.07854583114385605,
				-0.47722306847572327
			],
			"min":[
				-0.07641325145959854,
				-0.07854583114385605,
				-0.6520156860351562
			],
			"type":"VEC3"
		},
		{
			"bufferView":6,
			"componentType":5126,
			"count":24,
			"type":"VEC2"
		},
		{
			"bufferView":7,
			"componentType":5126,
			"count":24,
			"type":"VEC3"
		},
		{
			"bufferView":8,
			"componentType":5126,
			"count":24,
			"type":"VEC4"
		},
		{
			"bufferView":9,
			"componentType":5123,
			"count":36,
			"type":"SCALAR"
		},
		{
			"bufferView":10,
			"componentType":5126,
			"count":20,
			"max":[
				0.25239917635917664,
				0.10000000149011612,
				-0.9200284481048584
			],
			"min":[
				-0.5021325945854187,
				-0.10000000149011612,
				-1.1199573278427124
			],
			"type":"VEC3"
		},
		{
			"bufferView":11,
			"componentType":5126,
			"count":20,
			"type":"VEC2"
		},
		{
			"bufferView":12,
			"componentType":5126,
			"count":20,
			"type":"VEC3"
		},
		{
			"bufferView":13,
			"componentType":5126,
			"count":20,
			"type":"VEC4"
		},
		{
			"bufferView":14,
			"componentType":5123,
			"count":30,
			"type":"SCALAR"
		},
		{
			"bufferView":15,
			"componentType":5126,
			"count":12,
			"max":[
				0.31946083903312683,
				0.10000000149011612,
				-0.9200284481048584
			],
			"min":[
				0.24706776440143585,
				-0.10000000149011612,
				-1.1199573278427124
			],
			"type":"VEC3"
		},
		{
			"bufferView":16,
			"componentType":5126,
			"count":12,
			"type":"VEC2"
		},
		{
			"bufferView":17,
			"componentType":5126,
			"count":12,
			"type":"VEC3"
		},
		{
			"bufferView":18,
			"componentType":5126,
			"count":12,
			"type":"VEC4"
		},
		{
			"bufferView":19,
			"componentType":5123,
			"count":12,
			"type":"SCALAR"
		},
		{
			"bufferView":20,
			"componentType":5126,
			"count":112,
			"max":[
				0.008410490117967129,
				0.02511168085038662,
				-0.824451208114624
			],
			"min":[
				-0.00414534006267786,
				-0.02511168085038662,
				-0.9081567525863647
			],
			"type":"VEC3"
		},
		{
			"bufferView":21,
			"componentType":5126,
			"count":112,
			"type":"VEC2"
		},
		{
			"bufferView":22,
			"componentType":5126,
			"count":112,
			"type":"VEC3"
		},
		{
			"bufferView":23,
			"componentType":5126,
			"count":112,
			"type":"VEC4"
		},
		{
			"bufferView":24,
			"componentType":5123,
			"count":240,
			"type":"SCALAR"
		},
		{
			"bufferView":25,
			"componentType":5126,
			"count":68,
			"max":[
				0.11879923939704895,
				0.11666666716337204,
				-0.420028418302536
			],
			"min":[
				-0.11453408747911453,
				-0.11666666716337204,
				-0.7052378058433533
			],
			"type":"VEC3"
		},
		{
			"bufferView":26,
			"componentType":5126,
			"count":68,
			"type":"VEC2"
		},
		{
			"bufferView":27,
			"componentType":5126,
			"count":68,
			"type":"VEC3"
		},
		{
			"bufferView":28,
			"componentType":5126,
			"count":68,
			"type":"VEC4"
		},
		{
			"bufferView":29,
			"componentType":5123,
			"count":102,
			"type":"SCALAR"
		},
		{
			"bufferView":30,
			"componentType":5126,
			"count":190,
			"max":[
				0.10713257640600204,
				0.10499999672174454,
				-0.44196760654449463
			],
			"min":[
				-0.10286741703748703,
				-0.10499999672174454,
				-0.7491161227226257
			],
			"type":"VEC3"
		},
		{
			"bufferView":31,
			"componentType":5126,
			"count":190,
			"type":"VEC2"
		},
		{
			"bufferView":32,
			"componentType":5126,
			"count":190,
			"type":"VEC3"
		},
		{
			"bufferView":33,
			"componentType":5126,
			"count":190,
			"type":"VEC4"
		},
		{
			"bufferView":34,
			"componentType":5123,
			"count":390,
			"type":"SCALAR"
		},
		{
			"bufferView":35,
			"componentType":5126,
			"count":72,
			"max":[
				0.02724424935877323,
				0.006277920212596655,
				-0.8830450773239136
			],
			"min":[
				-0.022979099303483963,
				-0.006277920212596655,
				-0.9248979091644287
			],
			"type":"VEC3"
		},
		{
			"bufferView":36,
			"componentType":5126,
			"count":72,
			"type":"VEC2"
		},
		{
			"bufferView":37,
			"componentType":5126,
			"count":72,
			"type":"VEC3"
		},
		{
			"bufferView":38,
			"componentType":5126,
			"count":72,
			"type":"VEC4"
		},
		{
			"bufferView":39,
			"componentType":5123,
			"count":132,
			"type":"SCALAR"
		},
		{
			"bufferView":40,
			"componentType":5126,
			"count":112,
			"max":[
				0.02724424935877323,
				0.006277920212596655,
				-0.7658572793006897
			],
			"min":[
				-0.022979099303483963,
				-0.006277920212596655,
				-0.8495628833770752
			],
			"type":"VEC3"
		},
		{
			"bufferView":41,
			"componentType":5126,
			"count":112,
			"type":"VEC2"
		},
		{
			"bufferView":42,
			"componentType":5126,
			"count":112,
			"type":"VEC3"
		},
		{
			"bufferView":43,
			"componentType":5126,
			"count":112,
			"type":"VEC4"
		},
		{
			"bufferView":44,
			"componentType":5123,
			"count":240,
			"type":"SCALAR"
		},
		{
			"bufferView":45,
			"componentType":5126,
			"count":72,
			"max":[
				0.008410490117967129,
				0.02511168085038662,
				-0.7491161227226257
			],
			"min":[
				-0.00414534006267786,
				-0.02511168085038662,
				-0.7909689545631409
			],
			"type":"VEC3"
		},
		{
			"bufferView":46,
			"componentType":5126,
			"count":72,
			"type":"VEC2"
		},
		{
			"bufferView":47,
			"componentType":5126,
			"count":72,
			"type":"VEC3"
		},
		{
			"bufferView":48,
			"componentType":5126,
			"count":72,
			"type":"VEC4"
		},
		{
			"bufferView":49,
			"componentType":5123,
			"count":132,
			"type":"SCALAR"
		}
	],
	"bufferViews":[
		{
			"buffer":0,
			"byteLength":48,
			"byteOffset":0,
			"target":34962
		},
		{
			"buffer":0,
			"byteLength":32,
			"byteOffset":48,
			"target":34962
		},
		{
			"buffer":0,
			"byteLength":48,
			"byteOffset":80,
			"target":34962
		},
		{
			"buffer":0,
			"byteLength":64,
			"byteOffset":128,
			"target":34962
		},
		{
			"buffer":0,
			"byteLength":12,
			"byteOffset":192,
			"target":34963
		},
		{
			"buffer":0,
			"byteLength":288,
			"byteOffset":204,
			"target":34962
		},
		{
			"buffer":0,
			"byteLength":192,
			"byteOffset":492,
			"target":34962
		},
		{
			"buffer":0,
			"byteLength":288,
			"byteOffset":684,
			"target":34962
		},
		{
			"buffer":0,
			"byteLength":384,
			"byteOffset":972,
			"target":34962
		},
		{
			"buffer":0,
			"byteLength":72,
			"byteOffset":1356,
			"target":34963
		},
		{
			"buffer":0,
			"byteLength":240,
			"byteOffset":1428,
			"target":34962
		},
		{
			"buffer":0,
			"byteLength":160,
			"byteOffset":1668,
			"target":34962
		},
		{
			"buffer":0,
			"byteLength":240,
			"byteOffset":1828,
			"target":34962
		},
		{
			"buffer":0,
			"byteLength":320,
			"byteOffset":2068,
			"target":34962
		},
		{
			"buffer":0,
			"byteLength":60,
			"byteOffset":2388,
			"target":34963
		},
		{
			"buffer":0,
			"byteLength":144,
			"byteOffset":2448,
			"target":34962
		},
		{
			"buffer":0,
			"byteLength":96,
			"byteOffset":2592,
			"target":34962
		},
		{
			"buffer":0,
			"byteLength":144,
			"byteOffset":2688,
			"target":34962
		},
		{
			"buffer":0,
			"byteLength":192,
			"byteOffset":2832,
			"target":34962
		},
		{
			"buffer":0,
			"byteLength":24,
			"byteOffset":3024,
			"target":34963
		},
		{
			"buffer":0,
			"byteLength":1344,
			"byteOffset":3048,
			"target":34962
		},
		{
			"buffer":0,
			"byteLength":896,
			"byteOffset":4392,
			"target":34962
		},
		{
			"buffer":0,
			"byteLength":1344,
			"byteOffset":5288,
			"target":34962
		},
		{
			"buffer":0,
			"byteLength":1792,
			"byteOffset":6632,
			"target":34962
		},
		{
			"buffer":0,
			"byteLength":480,
			"byteOffset":8424,
			"target":34963
		},
		{
			"buffer":0,
			"byteLength":816,
			"byteOffset":8904,
			"target":34962
		},
		{
			"buffer":0,
			"byteLength":544,
			"byteOffset":9720,
			"target":34962
		},
		{
			"buffer":0,
			"byteLength":816,
			"byteOffset":10264,
			"target":34962
		},
		{
			"buffer":0,
			"byteLength":1088,
			"byteOffset":11080,
			"target":34962
		},
		{
			"buffer":0,
			"byteLength":204,
			"byteOffset":12168,
			"target":34963
		},
		{
			"buffer":0,
			"byteLength":2280,
			"byteOffset":12372,
			"target":34962
		},
		{
			"buffer":0,
			"byteLength":1520,
			"byteOffset":14652,
			"target":34962
		},
		{
			"buffer":0,
			"byteLength":2280,
			"byteOffset":16172,
			"target":34962
		},
		{
			"buffer":0,
			"byteLength":3040,
			"byteOffset":18452,
			"target":34962
		},
		{
			"buffer":0,
			"byteLength":780,
			"byteOffset":21492,
			"target":34963
		},
		{
			"buffer":0,
			"byteLength":864,
			"byteOffset":22272,
			"target":34962
		},
		{
			"buffer":0,
			"byteLength":576,
			"byteOffset":23136,
			"target":34962
		},
		{
			"buffer":0,
			"byteLength":864,
			"byteOffset":23712,
			"target":34962
		},
		{
			"buffer":0,
			"byteLength":1152,
			"byteOffset":24576,
			"target":34962
		},
		{
			"buffer":0,
			"byteLength":264,
			"byteOffset":25728,
			"target":34963
		},
		{
			"buffer":0,
			"byteLength":1344,
			"byteOffset":25992,
			"target":34962
		},
		{
			"buffer":0,
			"byteLength":896,
			"byteOffset":27336,
			"target":34962
		},
		{
			"buffer":0,
			"byteLength":1344,
			"byteOffset":28232,
			"target":34962
		},
		{
			"buffer":0,
			"byteLength":1792,
			"byteOffset":29576,
			"target":34962
		},
		{
			"buffer":0,
			"byteLength":480,
			"byteOffset":31368,
			"target":34963
		},
		{
			"buffer":0,
			"byteLength":864,
			"byteOffset":31848,
			"target":34962
		},
		{
			"buffer":0,
			"byteLength":576,
			"byteOffset":32712,
			"target":34962
		},
		{
			"buffer":0,
			"byteLength":864,
			"byteOffset":33288,
			"target":34962
		},
		{
			"buffer":0,
			"byteLength":1152,
			"byteOffset":34152,
			"target":34962
		},
		{
			"buffer":0,
			"byteLength":264,
			"byteOffset":35304,
			"target":34963
		}
	],
	"buffers":[
		{
			"byteLength":35568,
			"uri":"data:application/octet-stream;base64,"
		}
	]
}
